<?xml version="1.0" encoding="UTF-8" standalone="no"?>
<!DOCTYPE svg PUBLIC "-//W3C//DTD SVG 1.1//EN" "http://www.w3.org/Graphics/SVG/1.1/DTD/svg11.dtd">
<svg width="100%" height="100%" viewBox="0 0 2000 2000" version="1.1" xmlns="http://www.w3.org/2000/svg" xmlns:xlink="http://www.w3.org/1999/xlink" xml:space="preserve" xmlns:serif="http://www.serif.com/" style="fill-rule:evenodd;clip-rule:evenodd;stroke-linecap:round;stroke-linejoin:round;stroke-miterlimit:1.5;">
    <g transform="matrix(2.34283,0,0,2.30968,-512.468,-1074.55)">
        <path d="M1072.4,593.613C1072.4,522.761 1015.7,465.239 945.848,465.239L345.295,465.239C275.447,465.239 218.738,522.761 218.738,593.613L218.738,1202.79C218.738,1273.64 275.447,1331.16 345.295,1331.16L945.848,1331.16C1015.7,1331.16 1072.4,1273.64 1072.4,1202.79L1072.4,593.613Z" style="fill:rgb(165,180,252);"/>
        <clipPath id="_clip1">
            <path d="M1072.4,593.613C1072.4,522.761 1015.7,465.239 945.848,465.239L345.295,465.239C275.447,465.239 218.738,522.761 218.738,593.613L218.738,1202.79C218.738,1273.64 275.447,1331.16 345.295,1331.16L945.848,1331.16C1015.7,1331.16 1072.4,1273.64 1072.4,1202.79L1072.4,593.613Z"/>
        </clipPath>
        <g clip-path="url(#_clip1)">
            <g id="Bücher" transform="matrix(0.326699,0,0,0.331388,414.325,566.811)">
                <g id="Buch-1" serif:id="Buch 1" transform="matrix(1,0,0,1,91.7852,-17.3921)">
                    <path d="M1737.43,393.715C1737.43,365.741 1714.72,343.029 1686.75,343.029L110.465,343.029C82.491,343.029 59.78,365.741 59.78,393.715L59.78,629.525C59.78,657.499 82.491,680.211 110.465,680.211L1686.75,680.211C1714.72,680.211 1737.43,657.499 1737.43,629.525L1737.43,393.715Z" style="fill:rgb(95,199,183);"/>
                    <clipPath id="_clip2">
                        <path d="M1737.43,393.715C1737.43,365.741 1714.72,343.029 1686.75,343.029L110.465,343.029C82.491,343.029 59.78,365.741 59.78,393.715L59.78,629.525C59.78,657.499 82.491,680.211 110.465,680.211L1686.75,680.211C1714.72,680.211 1737.43,657.499 1737.43,629.525L1737.43,393.715Z"/>
                    </clipPath>
                    <g clip-path="url(#_clip2)">
                        <g transform="matrix(1,0,0,1.25985,12.3872,-225.79)">
                            <rect x="423.177" y="451.497" width="66.523" height="267.636" style="fill:rgb(226,227,255);stroke:black;stroke-width:11.97px;"/>
                        </g>
                        <g transform="matrix(1,0,0,1.25985,-101.394,-225.79)">
                            <rect x="423.177" y="451.497" width="66.523" height="267.636" style="fill:rgb(226,227,255);stroke:black;stroke-width:11.97px;"/>
                        </g>
                    </g>
                    <path d="M1737.43,393.715C1737.43,365.741 1714.72,343.029 1686.75,343.029L110.465,343.029C82.491,343.029 59.78,365.741 59.78,393.715L59.78,629.525C59.78,657.499 82.491,680.211 110.465,680.211L1686.75,680.211C1714.72,680.211 1737.43,657.499 1737.43,629.525L1737.43,393.715Z" style="fill:none;stroke:black;stroke-width:13.61px;"/>
                </g>
                <g id="Buch-2" serif:id="Buch 2" transform="matrix(1,0,0,1,161.249,319.789)">
                    <path d="M1737.43,393.715C1737.43,365.741 1714.72,343.029 1686.75,343.029L110.465,343.029C82.491,343.029 59.78,365.741 59.78,393.715L59.78,629.525C59.78,657.499 82.491,680.211 110.465,680.211L1686.75,680.211C1714.72,680.211 1737.43,657.499 1737.43,629.525L1737.43,393.715Z" style="fill:rgb(199,197,95);"/>
                    <clipPath id="_clip3">
                        <path d="M1737.43,393.715C1737.43,365.741 1714.72,343.029 1686.75,343.029L110.465,343.029C82.491,343.029 59.78,365.741 59.78,393.715L59.78,629.525C59.78,657.499 82.491,680.211 110.465,680.211L1686.75,680.211C1714.72,680.211 1737.43,657.499 1737.43,629.525L1737.43,393.715Z"/>
                    </clipPath>
                    <g clip-path="url(#_clip3)">
                        <g transform="matrix(2.20814,0,0,1.25985,473.645,-225.79)">
                            <rect x="423.177" y="451.497" width="66.523" height="267.636" style="fill:rgb(226,227,255);stroke:black;stroke-width:7.57px;"/>
                        </g>
                        <g transform="matrix(1.10407,0,0,1.25985,99.858,-225.79)">
                            <rect x="423.177" y="451.497" width="66.523" height="267.636" style="fill:rgb(226,227,255);stroke:black;stroke-width:11.49px;"/>
                        </g>
                    </g>
                    <path d="M1737.43,393.715C1737.43,365.741 1714.72,343.029 1686.75,343.029L110.465,343.029C82.491,343.029 59.78,365.741 59.78,393.715L59.78,629.525C59.78,657.499 82.491,680.211 110.465,680.211L1686.75,680.211C1714.72,680.211 1737.43,657.499 1737.43,629.525L1737.43,393.715Z" style="fill:none;stroke:black;stroke-width:13.61px;"/>
                </g>
                <g id="Buch-3" serif:id="Buch 3" transform="matrix(1,0,0,1,41.5388,656.971)">
                    <path d="M1737.43,393.715C1737.43,365.741 1714.72,343.029 1686.75,343.029L110.465,343.029C82.491,343.029 59.78,365.741 59.78,393.715L59.78,629.525C59.78,657.499 82.491,680.211 110.465,680.211L1686.75,680.211C1714.72,680.211 1737.43,657.499 1737.43,629.525L1737.43,393.715Z" style="fill:rgb(199,116,95);"/>
                    <clipPath id="_clip4">
                        <path d="M1737.43,393.715C1737.43,365.741 1714.72,343.029 1686.75,343.029L110.465,343.029C82.491,343.029 59.78,365.741 59.78,393.715L59.78,629.525C59.78,657.499 82.491,680.211 110.465,680.211L1686.75,680.211C1714.72,680.211 1737.43,657.499 1737.43,629.525L1737.43,393.715Z"/>
                    </clipPath>
                    <g clip-path="url(#_clip4)">
                        <g transform="matrix(2.20814,0,0,1.25985,473.645,-225.79)">
                            <rect x="423.177" y="451.497" width="66.523" height="267.636" style="fill:rgb(226,227,255);stroke:black;stroke-width:7.57px;"/>
                        </g>
                        <g transform="matrix(1.10407,0,0,1.25985,30.4591,-225.79)">
                            <rect x="423.177" y="451.497" width="66.523" height="267.636" style="fill:rgb(226,227,255);stroke:black;stroke-width:11.49px;"/>
                        </g>
                        <g transform="matrix(1.10407,0,0,1.25985,146.123,-225.79)">
                            <rect x="423.177" y="451.497" width="66.523" height="267.636" style="fill:rgb(226,227,255);stroke:black;stroke-width:11.49px;"/>
                        </g>
                    </g>
                    <path d="M1737.43,393.715C1737.43,365.741 1714.72,343.029 1686.75,343.029L110.465,343.029C82.491,343.029 59.78,365.741 59.78,393.715L59.78,629.525C59.78,657.499 82.491,680.211 110.465,680.211L1686.75,680.211C1714.72,680.211 1737.43,657.499 1737.43,629.525L1737.43,393.715Z" style="fill:none;stroke:black;stroke-width:13.61px;"/>
                </g>
                <g id="Buch-4" serif:id="Buch 4" transform="matrix(1,0,0,1,91.7852,994.152)">
                    <path d="M1737.43,393.715C1737.43,365.741 1714.72,343.029 1686.75,343.029L110.465,343.029C82.491,343.029 59.78,365.741 59.78,393.715L59.78,629.525C59.78,657.499 82.491,680.211 110.465,680.211L1686.75,680.211C1714.72,680.211 1737.43,657.499 1737.43,629.525L1737.43,393.715Z" style="fill:rgb(199,95,188);"/>
                    <clipPath id="_clip5">
                        <path d="M1737.43,393.715C1737.43,365.741 1714.72,343.029 1686.75,343.029L110.465,343.029C82.491,343.029 59.78,365.741 59.78,393.715L59.78,629.525C59.78,657.499 82.491,680.211 110.465,680.211L1686.75,680.211C1714.72,680.211 1737.43,657.499 1737.43,629.525L1737.43,393.715Z"/>
                    </clipPath>
                    <g clip-path="url(#_clip5)">
                        <g transform="matrix(1.10407,0,0,1.25985,-54.8528,-225.79)">
                            <rect x="423.177" y="451.497" width="66.523" height="267.636" style="fill:rgb(226,227,255);stroke:black;stroke-width:11.49px;"/>
                        </g>
                    </g>
                    <path d="M1737.43,393.715C1737.43,365.741 1714.72,343.029 1686.75,343.029L110.465,343.029C82.491,343.029 59.78,365.741 59.78,393.715L59.78,629.525C59.78,657.499 82.491,680.211 110.465,680.211L1686.75,680.211C1714.72,680.211 1737.43,657.499 1737.43,629.525L1737.43,393.715Z" style="fill:none;stroke:black;stroke-width:13.61px;"/>
                </g>
            </g>
            <g transform="matrix(0.450986,0,0,0.462597,184.624,454.912)">
                <path d="M903.623,710.703C903.623,653.624 856.761,607.282 799.041,607.282L298.372,607.282C240.651,607.282 193.79,653.624 193.79,710.703L193.79,1205.81C193.79,1262.89 240.651,1309.23 298.372,1309.23L799.041,1309.23C856.761,1309.23 903.623,1262.89 903.623,1205.81L903.623,710.703Z" style="fill:rgb(99,102,241);"/>
                <clipPath id="_clip6">
                    <path d="M903.623,710.703C903.623,653.624 856.761,607.282 799.041,607.282L298.372,607.282C240.651,607.282 193.79,653.624 193.79,710.703L193.79,1205.81C193.79,1262.89 240.651,1309.23 298.372,1309.23L799.041,1309.23C856.761,1309.23 903.623,1262.89 903.623,1205.81L903.623,710.703Z"/>
                </clipPath>
                <g clip-path="url(#_clip6)">
                    <g transform="matrix(0.946444,0,0,0.935934,27.0607,124.098)">
                        <g transform="matrix(458.333,0,0,458.333,904.391,1055.93)">
                        </g>
                        <text x="200.554px" y="1055.93px" style="font-family:'Roboto-BoldItalic', 'Roboto';font-weight:700;font-style:italic;font-size:458.333px;fill:white;">BIB</text>
                    </g>
                </g>
            </g>
        </g>
    </g>
</svg>
